<svg width="43" height="51" viewBox="0 0 43 51" fill="none" xmlns="http://www.w3.org/2000/svg">
<path d="M18.875 6.95312L13.8351 3.38322C8.8682 -0.135027 2 3.41666 2 9.5034L2 15.625M18.875 6.95312L37.6394 19.4627C42.0924 22.4314 42.0924 28.9748 37.6394 31.9435L18.875 44.4531M18.875 6.95312V11.928C18.875 14.2588 19.9586 16.4571 21.8073 17.8766L27.828 22.4997C29.8711 24.0685 29.7606 27.1827 27.6114 28.6027L22.2406 32.1513C20.1392 33.5397 18.875 35.8902 18.875 38.4088V44.4531M18.875 44.4531L13.475 47.8281C8.47963 50.9502 2 47.3589 2 41.4681L2 34.375M2 15.625L2 25.7031L2 34.375M2 15.625H6.78462C8.53915 15.625 10.2381 16.2401 11.586 17.3633L17.293 22.1192C19.0921 23.6184 19.0921 26.3816 17.293 27.8808L11.586 32.6367C10.2381 33.7599 8.53915 34.375 6.78462 34.375H2" stroke="white" stroke-width="3.75"/>
</svg>
