<svg width="1048" height="832" viewBox="0 0 1048 832" fill="none" xmlns="http://www.w3.org/2000/svg" preserveAspectRatio="none">
<path opacity="0.1" d="M0.76248 1206.24H1046.12M0.762476 1126.18H1046.12M1.52496 562.708L1046.88 562.707M1.52495 482.648L1046.88 482.648M1.52496 0.762476V1206.24M81.585 0.762476V1206.24M645.055 1.52495V1207M725.115 1.52495V1207M3.58389e-06 1045.36H1045.36M0 965.295H1045.36M0.76248 401.825L1046.12 401.825M0.762476 321.765L1046.12 321.765M162.407 0V1205.48M242.467 0V1205.48M805.937 0.762476V1206.24M885.997 0.762476V1206.24M966.82 0V1205.48M1046.88 0V1205.48M3.58389e-06 884.473H1045.36M0 804.413H1045.36M0.76248 240.943L1046.12 240.942M0.762476 160.883L1046.12 160.883M323.29 0V1205.48M403.35 0V1205.48M3.58389e-06 723.59L1045.36 723.59M0 643.53L1045.36 643.53M0.76248 80.06L1046.12 80.06M0.762476 4.65379e-05L1046.12 1.91953e-06M484.172 0V1205.48M564.232 0V1205.48" stroke="#E2E2E2" stroke-width="0.762476"/>
</svg>
